<svg id="visual" viewBox="0 0 900 600" width="900" height="600" xmlns="http://www.w3.org/2000/svg" xmlns:xlink="http://www.w3.org/1999/xlink" version="1.1"><g stroke-width="1" stroke-linejoin="bevel"><path d="M419 169L454 0L250 0Z" fill="#939dc4" stroke="#939dc4"></path><path d="M250 0L223 224L419 169Z" fill="#8895b3" stroke="#8895b3"></path><path d="M653 227L669 0L454 0Z" fill="#bbaee9" stroke="#bbaee9"></path><path d="M223 224L259 390L419 169Z" fill="#939dc4" stroke="#939dc4"></path><path d="M419 169L653 227L454 0Z" fill="#a9a8db" stroke="#a9a8db"></path><path d="M442 435L653 227L419 169Z" fill="#8895b3" stroke="#8895b3"></path><path d="M250 0L0 0L223 224Z" fill="#939dc4" stroke="#939dc4"></path><path d="M223 224L0 365L259 390Z" fill="#dab6fc" stroke="#dab6fc"></path><path d="M0 0L0 199L223 224Z" fill="#8d99bb" stroke="#8d99bb"></path><path d="M259 390L442 435L419 169Z" fill="#a9a8db" stroke="#a9a8db"></path><path d="M442 435L637 407L653 227Z" fill="#c5b1f0" stroke="#c5b1f0"></path><path d="M0 199L0 365L223 224Z" fill="#a1a4d3" stroke="#a1a4d3"></path><path d="M259 390L260 600L442 435Z" fill="#a1a4d3" stroke="#a1a4d3"></path><path d="M0 600L260 600L259 390Z" fill="#bbaee9" stroke="#bbaee9"></path><path d="M442 435L465 600L637 407Z" fill="#9aa1cc" stroke="#9aa1cc"></path><path d="M260 600L465 600L442 435Z" fill="#dab6fc" stroke="#dab6fc"></path><path d="M900 174L669 0L653 227Z" fill="#bbaee9" stroke="#bbaee9"></path><path d="M900 174L900 0L669 0Z" fill="#dab6fc" stroke="#dab6fc"></path><path d="M900 394L900 174L653 227Z" fill="#dab6fc" stroke="#dab6fc"></path><path d="M900 394L653 227L637 407Z" fill="#c5b1f0" stroke="#c5b1f0"></path><path d="M465 600L683 600L637 407Z" fill="#bbaee9" stroke="#bbaee9"></path><path d="M683 600L900 394L637 407Z" fill="#b2abe2" stroke="#b2abe2"></path><path d="M0 365L0 600L259 390Z" fill="#c5b1f0" stroke="#c5b1f0"></path><path d="M683 600L900 600L900 394Z" fill="#dab6fc" stroke="#dab6fc"></path></g></svg>